<svg xmlns="http://www.w3.org/2000/svg" viewBox="0 0 2048 2048" role="img" aria-label="Sofis Tienda de Modas logo">
<g fill="#fe4c9f" fill-rule="evenodd">
<path d="M 710.0 1151.5 L 683.0 1148.5 L 626.0 1134.5 L 578.0 1126.5 L 504.0 1124.5 L 465.5 1128.0 L 468.0 1122.5 L 478.0 1116.5 L 500.5 1094.0 L 518.5 1068.0 L 530.5 1044.0 L 544.5 999.0 L 548.5 949.0 L 540.0 934.5 L 501.0 910.5 L 468.5 882.0 L 448.5 855.0 L 434.5 825.0 L 428.5 798.0 L 428.5 754.0 L 440.5 717.0 L 452.0 698.5 L 431.0 708.5 L 418.5 722.0 L 408.5 752.0 L 408.5 783.0 L 422.5 832.0 L 454.5 892.0 L 472.5 940.0 L 476.5 996.0 L 468.5 1029.0 L 462.5 1041.0 L 449.0 1056.5 L 433.0 1064.5 L 422.5 1064.0 L 440.5 1046.0 L 448.5 1032.0 L 452.5 1018.0 L 452.5 989.0 L 450.0 982.5 L 446.5 1013.0 L 440.5 1028.0 L 423.0 1048.5 L 406.0 1058.5 L 388.0 1064.5 L 352.0 1064.5 L 327.0 1056.5 L 312.5 1044.0 L 309.5 1038.0 L 311.0 1034.5 L 326.0 1041.5 L 340.0 1040.5 L 348.0 1036.5 L 358.5 1026.0 L 366.5 1001.0 L 341.0 1014.5 L 327.0 1016.5 L 305.0 1008.5 L 292.5 993.0 L 289.5 978.0 L 292.0 968.5 L 295.0 967.5 L 298.5 971.0 L 300.5 980.0 L 309.0 988.5 L 326.0 992.5 L 342.5 984.0 L 348.5 970.0 L 348.5 961.0 L 336.5 926.0 L 302.5 868.0 L 289.0 838.5 L 294.5 866.0 L 316.5 909.0 L 315.0 914.5 L 296.5 894.0 L 284.5 873.0 L 270.5 832.0 L 264.5 773.0 L 270.5 731.0 L 282.5 696.0 L 300.5 667.0 L 321.0 646.5 L 340.0 634.5 L 360.0 626.5 L 383.0 623.5 L 408.0 624.5 L 430.0 630.5 L 451.0 640.5 L 484.0 666.5 L 510.0 646.5 L 547.0 630.5 L 585.0 622.5 L 617.0 622.5 L 659.0 630.5 L 693.0 644.5 L 728.0 668.5 L 748.5 691.0 L 764.5 722.0 L 768.5 754.0 L 758.5 784.0 L 744.0 800.5 L 742.5 796.0 L 750.5 778.0 L 752.5 765.0 L 752.5 752.0 L 750.5 753.0 L 748.5 768.0 L 734.5 799.0 L 732.5 812.0 L 747.0 820.5 L 756.0 816.5 L 761.5 818.0 L 760.0 822.5 L 742.0 832.5 L 740.5 836.0 L 758.5 853.0 L 765.5 866.0 L 762.5 878.0 L 747.5 887.0 L 752.5 907.0 L 746.5 915.0 L 748.5 927.0 L 735.5 936.0 L 739.5 953.0 L 738.5 962.0 L 727.0 972.5 L 704.0 972.5 L 671.0 962.5 L 655.0 962.5 L 644.5 984.0 L 636.5 1034.0 L 640.5 1067.0 L 652.5 1094.0 L 668.5 1116.0 L 685.0 1130.5 L 708.0 1144.5 L 711.5 1149.0 L 710.0 1151.5 Z"/>
<path d="M 881.0 1171.5 L 849.0 1170.5 L 817.0 1164.5 L 800.0 1158.5 L 773.0 1142.5 L 760.5 1129.0 L 754.5 1116.0 L 754.5 1095.0 L 768.5 1071.0 L 785.0 1056.5 L 805.0 1044.5 L 833.0 1034.5 L 863.0 1028.5 L 915.0 1030.5 L 943.0 1038.5 L 959.0 1046.5 L 970.5 1057.0 L 969.0 1063.5 L 934.0 1050.5 L 907.0 1044.5 L 862.0 1046.5 L 829.0 1058.5 L 800.5 1083.0 L 795.5 1098.0 L 796.5 1110.0 L 811.0 1128.5 L 829.0 1138.5 L 849.0 1144.5 L 895.0 1146.5 L 946.0 1134.5 L 970.0 1124.5 L 996.0 1108.5 L 1022.5 1086.0 L 1034.5 1069.0 L 1040.5 1055.0 L 1042.5 1038.0 L 1032.5 1015.0 L 1014.0 998.5 L 901.0 944.5 L 871.0 922.5 L 856.5 906.0 L 844.5 876.0 L 844.5 848.0 L 850.5 827.0 L 862.5 805.0 L 874.5 789.0 L 919.0 748.5 L 963.0 720.5 L 1027.0 692.5 L 1065.0 682.5 L 1095.0 678.5 L 1138.0 680.5 L 1164.0 686.5 L 1176.0 692.5 L 1198.5 711.0 L 1208.5 727.0 L 1213.5 750.0 L 1212.5 772.0 L 1204.5 797.0 L 1186.5 824.0 L 1170.0 840.5 L 1147.0 856.5 L 1136.0 860.5 L 1114.0 860.5 L 1100.5 849.0 L 1098.5 837.0 L 1107.0 822.5 L 1156.0 792.5 L 1172.5 776.0 L 1182.5 758.0 L 1184.5 740.0 L 1178.5 725.0 L 1161.0 710.5 L 1148.0 706.5 L 1119.0 705.5 L 1094.0 708.5 L 1059.0 718.5 L 1031.0 730.5 L 1001.0 746.5 L 961.0 774.5 L 930.5 805.0 L 920.5 819.0 L 910.5 840.0 L 910.5 863.0 L 916.5 876.0 L 941.0 898.5 L 1030.0 944.5 L 1069.0 972.5 L 1086.5 993.0 L 1092.5 1005.0 L 1096.5 1019.0 L 1096.5 1040.0 L 1088.5 1066.0 L 1074.5 1089.0 L 1053.0 1110.5 L 1028.0 1128.5 L 994.0 1146.5 L 955.0 1160.5 L 918.0 1168.5 L 881.0 1171.5 Z"/>
<path d="M 1355.0 1178.5 L 1336.0 1178.5 L 1318.0 1168.5 L 1304.5 1149.0 L 1298.5 1126.0 L 1300.5 1066.0 L 1322.0 982.5 L 1286.5 995.0 L 1268.5 1034.0 L 1240.0 1066.5 L 1211.0 1082.5 L 1177.0 1084.5 L 1146.0 1072.5 L 1124.5 1050.0 L 1114.5 1025.0 L 1114.5 987.0 L 1118.5 971.0 L 1138.5 935.0 L 1157.0 914.5 L 1185.0 894.5 L 1220.0 882.5 L 1253.0 884.5 L 1267.0 890.5 L 1280.5 902.0 L 1286.5 910.0 L 1294.5 933.0 L 1293.0 970.5 L 1312.0 966.5 L 1328.0 958.5 L 1332.5 953.0 L 1348.5 907.0 L 1378.5 838.0 L 1400.5 795.0 L 1426.5 754.0 L 1455.0 722.5 L 1473.0 710.5 L 1503.0 700.5 L 1520.0 702.5 L 1532.5 712.0 L 1536.5 719.0 L 1538.5 740.0 L 1534.5 756.0 L 1518.5 791.0 L 1488.5 838.0 L 1462.5 872.0 L 1408.0 928.5 L 1386.5 946.0 L 1378.5 972.0 L 1392.0 978.5 L 1414.0 978.5 L 1444.0 966.5 L 1468.5 946.0 L 1494.5 898.0 L 1506.0 892.5 L 1532.0 900.5 L 1540.5 906.0 L 1540.5 917.0 L 1506.5 1010.0 L 1506.5 1046.0 L 1511.0 1050.5 L 1516.0 1050.5 L 1530.0 1042.5 L 1558.5 1010.0 L 1581.0 972.5 L 1588.0 972.5 L 1592.5 983.0 L 1574.5 1017.0 L 1552.5 1047.0 L 1526.0 1072.5 L 1500.0 1086.5 L 1476.0 1084.5 L 1466.5 1077.0 L 1458.5 1064.0 L 1454.5 1051.0 L 1452.5 1023.0 L 1460.0 980.5 L 1429.0 996.5 L 1407.0 1000.5 L 1414.5 1025.0 L 1414.5 1066.0 L 1406.5 1108.0 L 1386.5 1153.0 L 1373.0 1168.5 L 1355.0 1178.5 Z"/>
<path d="M 1400.5 906.0 L 1436.5 870.0 L 1486.5 806.0 L 1510.5 765.0 L 1518.5 744.0 L 1518.0 728.5 L 1507.0 728.5 L 1495.0 736.5 L 1460.5 781.0 L 1430.5 835.0 L 1400.5 906.0 Z"/>
<path d="M 1591.0 908.5 L 1583.0 908.5 L 1581.5 905.0 L 1600.5 886.0 L 1604.5 878.0 L 1601.5 852.0 L 1606.5 833.0 L 1616.0 822.5 L 1624.0 818.5 L 1635.0 817.5 L 1644.0 820.5 L 1654.5 833.0 L 1654.5 849.0 L 1648.5 862.0 L 1622.0 892.5 L 1607.0 902.5 L 1591.0 908.5 Z"/>
<path d="M 1545.0 888.5 L 1533.0 888.5 L 1523.0 884.5 L 1514.5 877.0 L 1508.5 864.0 L 1508.5 850.0 L 1514.5 837.0 L 1524.0 828.5 L 1535.0 824.5 L 1555.0 830.5 L 1564.5 841.0 L 1574.5 861.0 L 1567.0 876.5 L 1545.0 888.5 Z"/>
<path d="M 1677.0 1098.5 L 1647.0 1098.5 L 1631.0 1094.5 L 1620.0 1088.5 L 1608.5 1073.0 L 1608.5 1056.0 L 1616.5 1042.0 L 1637.0 1024.5 L 1674.5 1007.0 L 1630.5 970.0 L 1620.5 951.0 L 1620.5 934.0 L 1632.5 912.0 L 1659.0 892.5 L 1698.0 882.5 L 1726.0 884.5 L 1743.0 890.5 L 1758.5 905.0 L 1760.5 924.0 L 1757.0 928.5 L 1747.0 931.5 L 1731.0 916.5 L 1720.0 910.5 L 1696.0 908.5 L 1673.0 916.5 L 1664.5 930.0 L 1670.5 944.0 L 1703.0 972.5 L 1718.0 981.5 L 1733.0 980.5 L 1774.0 970.5 L 1814.0 948.5 L 1818.5 956.0 L 1806.0 972.5 L 1791.0 982.5 L 1748.0 998.5 L 1728.5 1002.0 L 1736.5 1011.0 L 1742.5 1027.0 L 1742.5 1047.0 L 1738.5 1059.0 L 1730.5 1070.0 L 1711.0 1086.5 L 1677.0 1098.5 Z"/>
<path d="M 1260.5 972.0 L 1264.5 953.0 L 1264.5 926.0 L 1254.0 906.5 L 1242.0 906.5 L 1232.5 914.0 L 1224.5 928.0 L 1224.5 951.0 L 1237.0 966.5 L 1260.5 972.0 Z"/>
<path d="M 1199.5 1058.0 L 1211.0 1054.5 L 1228.5 1040.0 L 1242.5 1020.0 L 1253.5 993.0 L 1232.0 986.5 L 1212.5 968.0 L 1206.5 954.0 L 1206.0 928.5 L 1192.5 943.0 L 1178.5 967.0 L 1166.5 1009.0 L 1168.5 1036.0 L 1174.5 1048.0 L 1186.0 1056.5 L 1199.5 1058.0 Z"/>
<path d="M 1361.5 1147.0 L 1370.5 1142.0 L 1386.5 1113.0 L 1394.5 1085.0 L 1398.5 1052.0 L 1394.5 1012.0 L 1388.0 1002.5 L 1373.0 994.5 L 1370.5 995.0 L 1360.5 1031.0 L 1348.5 1096.0 L 1350.5 1134.0 L 1354.5 1144.0 L 1361.5 1147.0 Z"/>
<path d="M 1660.5 1078.0 L 1678.0 1070.5 L 1694.5 1052.0 L 1696.5 1038.0 L 1692.5 1027.0 L 1685.0 1018.5 L 1649.0 1036.5 L 1632.5 1051.0 L 1628.5 1059.0 L 1628.5 1068.0 L 1636.0 1076.5 L 1660.5 1078.0 Z"/>
<path d="M 1652.0 1282.5 L 1630.0 1280.5 L 1618.5 1274.0 L 1620.0 1263.5 L 1638.0 1270.5 L 1651.0 1270.5 L 1657.5 1266.0 L 1656.0 1260.5 L 1629.0 1252.5 L 1620.5 1245.0 L 1620.5 1230.0 L 1634.0 1220.5 L 1659.0 1220.5 L 1668.5 1225.0 L 1668.5 1232.0 L 1665.0 1236.5 L 1647.0 1230.5 L 1636.0 1232.5 L 1632.5 1236.0 L 1637.0 1242.5 L 1656.0 1246.5 L 1670.5 1258.0 L 1670.5 1269.0 L 1666.5 1275.0 L 1652.0 1282.5 Z"/>
<path d="M 674.0 1280.5 L 662.5 1279.0 L 662.5 1233.0 L 640.0 1232.5 L 640.0 1220.5 L 701.5 1222.0 L 700.0 1232.5 L 675.5 1234.0 L 676.5 1278.0 L 674.0 1280.5 Z"/>
<path d="M 803.0 1280.5 L 752.5 1279.0 L 754.0 1220.5 L 802.5 1221.0 L 802.0 1232.5 L 766.0 1232.5 L 764.5 1239.0 L 766.0 1244.5 L 798.0 1244.5 L 797.0 1256.5 L 764.5 1257.0 L 766.0 1268.5 L 802.0 1268.5 L 804.5 1271.0 L 803.0 1280.5 Z"/>
<path d="M 883.0 1280.5 L 872.0 1280.5 L 836.0 1240.5 L 836.5 1279.0 L 822.5 1279.0 L 824.0 1220.5 L 837.0 1222.5 L 871.0 1260.5 L 871.5 1223.0 L 873.0 1220.5 L 884.5 1222.0 L 883.0 1280.5 Z"/>
<path d="M 946.0 1280.5 L 906.5 1279.0 L 908.0 1220.5 L 945.0 1220.5 L 956.0 1224.5 L 966.5 1234.0 L 970.5 1242.0 L 968.5 1263.0 L 959.0 1274.5 L 946.0 1280.5 Z"/>
<path d="M 1049.0 1280.5 L 1036.0 1280.5 L 1028.0 1265.5 L 1001.0 1265.5 L 991.0 1280.5 L 978.5 1280.0 L 1008.0 1220.5 L 1020.5 1221.0 L 1050.5 1278.0 L 1049.0 1280.5 Z"/>
<path d="M 1138.0 1280.5 L 1098.5 1279.0 L 1100.0 1220.5 L 1137.0 1220.5 L 1151.0 1226.5 L 1158.5 1234.0 L 1162.5 1242.0 L 1160.5 1264.0 L 1151.0 1274.5 L 1138.0 1280.5 Z"/>
<path d="M 1231.0 1280.5 L 1180.5 1279.0 L 1180.5 1223.0 L 1183.0 1220.5 L 1231.5 1222.0 L 1231.0 1232.5 L 1194.5 1233.0 L 1195.0 1244.5 L 1226.5 1245.0 L 1225.0 1256.5 L 1195.0 1256.5 L 1194.5 1268.0 L 1229.0 1268.5 L 1232.5 1271.0 L 1231.0 1280.5 Z"/>
<path d="M 1360.0 1280.5 L 1348.5 1280.0 L 1348.0 1243.5 L 1327.0 1274.5 L 1318.5 1272.0 L 1301.0 1244.5 L 1300.5 1280.0 L 1290.0 1280.5 L 1288.5 1223.0 L 1301.0 1220.5 L 1322.5 1256.0 L 1326.0 1256.5 L 1344.5 1225.0 L 1349.0 1220.5 L 1359.0 1220.5 L 1360.0 1280.5 Z"/>
<path d="M 1420.0 1282.5 L 1397.0 1278.5 L 1384.5 1268.0 L 1380.5 1260.0 L 1382.5 1237.0 L 1389.0 1228.5 L 1404.0 1220.5 L 1433.0 1222.5 L 1446.5 1234.0 L 1450.5 1242.0 L 1450.5 1259.0 L 1444.5 1270.0 L 1434.0 1278.5 L 1420.0 1282.5 Z"/>
<path d="M 1509.0 1280.5 L 1470.5 1280.0 L 1472.0 1220.5 L 1513.0 1222.5 L 1530.5 1238.0 L 1533.5 1249.0 L 1530.5 1264.0 L 1524.0 1272.5 L 1509.0 1280.5 Z"/>
<path d="M 1610.0 1280.5 L 1599.0 1280.5 L 1590.0 1264.5 L 1561.0 1264.5 L 1553.0 1280.5 L 1540.5 1280.0 L 1570.0 1220.5 L 1582.5 1222.0 L 1610.5 1275.0 L 1610.0 1280.5 Z"/>
</g></svg>
